<svg id="Layer_1" data-name="Layer 1" xmlns="http://www.w3.org/2000/svg" viewBox="0 0 234.59 62.48"><path d="M54.48,10a1.51,1.51,0,0,1,.92.44,1.14,1.14,0,0,1,0,1.52,1.26,1.26,0,0,1-.92.39q-4.5.16-8.92.55c-2.94.26-5.9.59-8.86,1a3.22,3.22,0,0,1,1.17.11,1.85,1.85,0,0,1,.92.57,1.27,1.27,0,0,1,.29.71,5.59,5.59,0,0,1,0,.81c0,.17-.09.4-.16.68s-.08.38,0,.31v-.05c-.17.84-.32,1.54-.44,2.12s-.24,1.15-.34,1.72-.2,1.18-.29,1.81-.18,1.41-.29,2.35a100.87,100.87,0,0,0-.65,12.87q.08,6.44.08,12.92a1.45,1.45,0,0,1-.42.76,1.08,1.08,0,0,1-1.39.13,1.23,1.23,0,0,1-.5-.73c0-3.69-.07-7.36-.1-11s.07-7.28.31-10.94c.11-1.46.23-2.88.37-4.26s.33-2.78.57-4.21l.84-4.19c-.87.07-1.7.18-2.48.32s-1.63.33-2.54.57a62.1,62.1,0,0,0-6.15,2,28.72,28.72,0,0,1-6.25,1.62c-.38.07-1,.15-1.75.24a16.06,16.06,0,0,1-2.41.07,7.9,7.9,0,0,1-2.25-.39,1.81,1.81,0,0,1-1.28-1.17,1.9,1.9,0,0,1-.05-.76,2.15,2.15,0,0,1,.31-.71,11.39,11.39,0,0,1,2.54-1.83,16.08,16.08,0,0,1,2.93-1.2,31.48,31.48,0,0,1,3.11-.79l3.09-.63q7.69-1.56,15.46-2.48T54.48,10ZM34.24,14.28a.28.28,0,0,0,.15,0,.35.35,0,0,1,.16,0q-5.49.8-10.83,1.89c-1.46.28-2.95.57-4.44.89a12.87,12.87,0,0,0-4.14,1.62,21.08,21.08,0,0,0,3.19,0,20.42,20.42,0,0,0,3.51-.65A63.33,63.33,0,0,0,28,16,32,32,0,0,1,34.24,14.28Z" transform="translate(-11.41 -6.56)"/><path d="M59.92,39a1.62,1.62,0,0,1,.87.34,1.09,1.09,0,0,1,.39.66,1.16,1.16,0,0,1-.16.73,1.4,1.4,0,0,1-.73.57,30.73,30.73,0,0,0-3.43.53,19.08,19.08,0,0,0-3.4,1,15.61,15.61,0,0,0-3.08,1.7,9.79,9.79,0,0,0-2.44,2.49,6.29,6.29,0,0,0-.86,2,8.4,8.4,0,0,0-.31,2.48,5.82,5.82,0,0,0,.49,2.31,2.92,2.92,0,0,0,1.63,1.51,2.21,2.21,0,0,0,1.3,0,7.3,7.3,0,0,0,1.36-.52,7.66,7.66,0,0,0,1.26-.79l1-.76a25,25,0,0,0,3.93-3.82,22.76,22.76,0,0,0,2.93-4.6v-.05l.15-.26A1.09,1.09,0,0,1,62.12,44,1.21,1.21,0,0,1,63,45.14c0,1,0,2.23,0,3.64s0,2.86,0,4.34a36.9,36.9,0,0,0,.34,4.29,9.52,9.52,0,0,0,1,3.37,1.14,1.14,0,0,1,.16,1,1.14,1.14,0,0,1-1.31.81,1.21,1.21,0,0,1-.84-.52,11.36,11.36,0,0,1-1.07-2.69,19.54,19.54,0,0,1-.55-3.12c-.11-1.08-.17-2.19-.18-3.32s0-2.24,0-3.32c-.38.52-.77,1-1.15,1.46a32.23,32.23,0,0,1-4,4,14.94,14.94,0,0,1-4.86,2.7,3,3,0,0,1-2.3,0,5.24,5.24,0,0,1-1.83-1.39,7.77,7.77,0,0,1-1.28-2.09,9.41,9.41,0,0,1-.66-2.17,8.33,8.33,0,0,1-.05-1.65c0-.54.09-1.09.16-1.65a2.8,2.8,0,0,1,.52-1.51A13.57,13.57,0,0,0,46,45.82,8.12,8.12,0,0,1,48.47,43a16.71,16.71,0,0,1,3.66-2,25.7,25.7,0,0,1,4-1.28A31.39,31.39,0,0,1,59.92,39Z" transform="translate(-11.41 -6.56)"/><path d="M67.82,17.36a1.41,1.41,0,0,1,.34-1,1.3,1.3,0,0,1,.76-.42,1.09,1.09,0,0,1,.81.24,1.34,1.34,0,0,1,.5.91q0,4.71-.18,9.63t-.24,9.91c0,3.33,0,6.64.24,9.91a70.79,70.79,0,0,0,1.22,9.63,1.13,1.13,0,0,1-.13,1,1.08,1.08,0,0,1-.68.47,1.32,1.32,0,0,1-.83-.13,1.11,1.11,0,0,1-.6-.78,72.55,72.55,0,0,1-1.26-9.71q-.31-5-.29-10t.19-10Q67.82,22.08,67.82,17.36Z" transform="translate(-11.41 -6.56)"/><path d="M76.14,29.87a1.75,1.75,0,0,1,.81.42,1.23,1.23,0,0,1,.42.7,1.17,1.17,0,0,1-.86,1.39h-.37a1.15,1.15,0,0,1-.84.36h-.36a1.45,1.45,0,0,1-.79-.52,1.32,1.32,0,0,1-.26-.76,1.21,1.21,0,0,1,.26-.73,1.55,1.55,0,0,1,.79-.5ZM74.83,42.74a1.74,1.74,0,0,1,.26-1,1.07,1.07,0,0,1,.63-.44,1.2,1.2,0,0,1,.76.1,1.24,1.24,0,0,1,.6.71,35.8,35.8,0,0,1,1.18,6.62q.28,3.42.5,6.72a1.49,1.49,0,0,1-.42.86,1.28,1.28,0,0,1-.71.34,1.07,1.07,0,0,1-.76-.18,1.31,1.31,0,0,1-.52-.76c-.1-2.2-.25-4.39-.45-6.59A38.8,38.8,0,0,0,74.83,42.74Z" transform="translate(-11.41 -6.56)"/><path d="M97.8,39a1.58,1.58,0,0,1,.86.34,1,1,0,0,1,.39.66,1.09,1.09,0,0,1-.15.73,1.43,1.43,0,0,1-.74.57,30.93,30.93,0,0,0-3.42.53,19.08,19.08,0,0,0-3.4,1,16,16,0,0,0-3.09,1.7,9.59,9.59,0,0,0-2.43,2.49A6.29,6.29,0,0,0,85,49a8.74,8.74,0,0,0-.31,2.48,5.83,5.83,0,0,0,.5,2.31,2.87,2.87,0,0,0,1.62,1.51,2.24,2.24,0,0,0,1.31,0,7.88,7.88,0,0,0,1.36-.52,7.56,7.56,0,0,0,1.25-.79l1-.76a25.33,25.33,0,0,0,3.92-3.82,22.33,22.33,0,0,0,2.93-4.6v-.05l.16-.26A1.08,1.08,0,0,1,100,44a1.2,1.2,0,0,1,.88,1.12c0,1,0,2.23,0,3.64s0,2.86,0,4.34a39.23,39.23,0,0,0,.34,4.29,9.52,9.52,0,0,0,1,3.37,1.14,1.14,0,0,1,.16,1,1.22,1.22,0,0,1-.5.66,1.28,1.28,0,0,1-.81.15,1.25,1.25,0,0,1-.84-.52,11.36,11.36,0,0,1-1.07-2.69,20.73,20.73,0,0,1-.55-3.12c-.1-1.08-.16-2.19-.18-3.32s0-2.24,0-3.32c-.39.52-.77,1-1.16,1.46a32.88,32.88,0,0,1-4,4,15.09,15.09,0,0,1-4.87,2.7,3,3,0,0,1-2.3,0,5.24,5.24,0,0,1-1.83-1.39A8,8,0,0,1,83,54.22a9.93,9.93,0,0,1-.66-2.17,9.16,9.16,0,0,1,0-1.65c0-.54.09-1.09.16-1.65A2.88,2.88,0,0,1,83,47.24a10.8,10.8,0,0,0,.84-1.42A8.22,8.22,0,0,1,86.34,43a17.18,17.18,0,0,1,3.66-2,25.82,25.82,0,0,1,4.06-1.28A30.73,30.73,0,0,1,97.8,39Z" transform="translate(-11.41 -6.56)"/><path d="M122.33,12.08a1.51,1.51,0,0,1-.55-.71,1.23,1.23,0,0,1,0-.76,1.11,1.11,0,0,1,.5-.57,1.49,1.49,0,0,1,.89-.16,6.78,6.78,0,0,0,1.81.45c.81.12,1.73.21,2.74.28a29.82,29.82,0,0,1,.16-3.13,1.2,1.2,0,0,1,.52-.74,1.26,1.26,0,0,1,.73-.18,1.06,1.06,0,0,1,.68.34,1.31,1.31,0,0,1,.37.84l-.16,3,1.47.11c.49,0,1,.08,1.46.15,1.92.21,3.72.47,5.42.79a25,25,0,0,1,4.81,1.38,21.11,21.11,0,0,1,4.32,2.36,20.44,20.44,0,0,1,3.87,3.63A4.23,4.23,0,0,1,152.2,21c.14.68.3,1.33.48,2a6.63,6.63,0,0,1,.34,2.25,6.44,6.44,0,0,1-.45,2.25l-.71,2a9.93,9.93,0,0,1-.49,1.2,5.89,5.89,0,0,1-.74,1.1c-.31.38-.75.94-1.3,1.67a11.82,11.82,0,0,1-2.46,2.38c-.94.68-1.94,1.33-3,1.94s-2.1,1.2-3.14,1.78a32.55,32.55,0,0,0-2.93,1.8.4.4,0,0,1-.19.13l-.18.08,2.8.21a12.59,12.59,0,0,1,2.56.47,9,9,0,0,1,2.33,1.08,8.65,8.65,0,0,1,2.09,2,2.23,2.23,0,0,1,.32,2.22,11.15,11.15,0,0,1-1.31,2.7,23.23,23.23,0,0,1-1.86,2.48c-.64.75-1.09,1.25-1.33,1.49q-2.25,2.25-4.71,4.29t-5.13,3.87c.25.91.52,1.79.82,2.64s.63,1.72,1,2.59a1.49,1.49,0,0,1-.13.89,1.07,1.07,0,0,1-.52.53,1.15,1.15,0,0,1-.76,0,1.32,1.32,0,0,1-.73-.53,25.5,25.5,0,0,1-1.73-4.81l-2.9,1.75c-1,.58-1.94,1.13-3,1.65a1.16,1.16,0,0,1-1,0,1.29,1.29,0,0,1-.62-.57,1.13,1.13,0,0,1-.08-.81,1.09,1.09,0,0,1,.63-.71c.73-.38,1.64-.91,2.74-1.57s2.3-1.43,3.59-2.3a55.83,55.83,0,0,1-1.18-10.1q-.13-5.11-.39-10.25l-.89-17.63q-.1-2.57-.24-5.13c-.09-1.71-.13-3.43-.13-5.18-.91,0-1.83-.08-2.77-.15A8,8,0,0,1,122.33,12.08Zm9,28.56c.17,3.21.29,6.41.34,9.6a54.28,54.28,0,0,0,1,9.45Q135,58,137.32,56.1a41,41,0,0,0,4-3.58,27.55,27.55,0,0,0,2.46-2.8,6.63,6.63,0,0,0,1.31-3.37,5.2,5.2,0,0,0-1.86-1.44A9.08,9.08,0,0,0,141,44.2a17.11,17.11,0,0,0-2.4-.26l-2.38-.11c-.39,0-.74-.06-1.08-.07a2.72,2.72,0,0,1-1-.29,1.28,1.28,0,0,1-.52-1.62A7.72,7.72,0,0,1,136,39.52q1.83-1.23,4-2.54t4.29-2.61a17.44,17.44,0,0,0,3.29-2.57,9.74,9.74,0,0,0,2.12-3.27,10,10,0,0,0,.71-3.66,8.7,8.7,0,0,0-3.19-6.72,14.1,14.1,0,0,0-3.77-2.36,28.67,28.67,0,0,0-4.37-1.44,39.89,39.89,0,0,0-4.6-.81c-1.55-.17-3.06-.33-4.53-.47,0,1.68.1,3.33.19,5s.16,3.3.23,5q.21,4.18.42,8.82C131,34.92,131.16,37.85,131.33,40.64Z" transform="translate(-11.41 -6.56)"/><path d="M155.66,43.42c-.11-.25-.21-.54-.32-.87s-.2-.63-.29-.91-.14-.51-.18-.68-.05-.25-.05-.21a1.41,1.41,0,0,1,.34-1,1.15,1.15,0,0,1,.76-.39,1.1,1.1,0,0,1,.78.26,1.41,1.41,0,0,1,.47.92,6.75,6.75,0,0,0,.24,1.7c.16.61.34,1.22.55,1.83l.63,1.83a15.33,15.33,0,0,1,.47,1.75,20,20,0,0,1,3.74-6,19.57,19.57,0,0,1,6-4.42,1.06,1.06,0,0,1,.86.05,1.46,1.46,0,0,1,.6.58,1.12,1.12,0,0,1,.13.81,1.28,1.28,0,0,1-.55.81,16.38,16.38,0,0,0-7.58,7,22.73,22.73,0,0,0-2.57,10.36V58a.51.51,0,0,1-.1.37,1.25,1.25,0,0,1-.73.73h-.42A.92.92,0,0,1,158,59h0s-.09,0-.16-.11l-.16-.16-.31-.62V56.39c0-1.67,0-3.31-.1-4.92a21.41,21.41,0,0,0-.74-4.71q-.26-1.35-.36-2A4.25,4.25,0,0,0,155.66,43.42Z" transform="translate(-11.41 -6.56)"/><path d="M181.6,50.69c-.8,0-1.5,0-2.11-.08a5.61,5.61,0,0,1-1.91-.55,1.23,1.23,0,0,1-.76-.26,1.3,1.3,0,0,1-.47-.63,1.16,1.16,0,0,1,0-.78,1.33,1.33,0,0,1,.65-.74,3.09,3.09,0,0,1,1.12-.1,5.74,5.74,0,0,1,1.13.21l1.15.31a3.43,3.43,0,0,0,1.2.11,7.89,7.89,0,0,0,3.8-1.1c.64-.53.87-1,.68-1.54a2.61,2.61,0,0,0-1.52-1.31,6.34,6.34,0,0,0-2.82-.5,7.74,7.74,0,0,0-3.3.94,7,7,0,0,0-2.85,3,4.84,4.84,0,0,0-.73,3.35,4.19,4.19,0,0,0,1.43,2.41,7.37,7.37,0,0,0,2.86,1.41,13.14,13.14,0,0,0,3.55.45,11.73,11.73,0,0,0,3.51-.58A6.57,6.57,0,0,0,188.93,53a1.53,1.53,0,0,1,.91-.29,1,1,0,0,1,.71.32,1.25,1.25,0,0,1,.31.73,1.91,1.91,0,0,1-.15,1,8.24,8.24,0,0,1-3.25,2,14.49,14.49,0,0,1-4.18.81,17.36,17.36,0,0,1-4.37-.34,11.14,11.14,0,0,1-3.77-1.44,6.42,6.42,0,0,1-2.38-2.51,4.77,4.77,0,0,1-.26-3.5c.25-.91.45-1.62.6-2.15a5.49,5.49,0,0,1,.61-1.36,12.94,12.94,0,0,1,.88-1.2c.35-.42.84-1,1.47-1.67a7.39,7.39,0,0,1,4.16-2.54,7.62,7.62,0,0,1,4.13.34,7.78,7.78,0,0,1,3.17,2.2,4.53,4.53,0,0,1,1.23,3,3.59,3.59,0,0,1-1.65,2.78C186,50,184.18,50.51,181.6,50.69Z" transform="translate(-11.41 -6.56)"/><path d="M195.31,57A5.38,5.38,0,0,1,194,54.14a34.08,34.08,0,0,1-.52-4.11c-.1-1.48-.18-3-.21-4.47a23.86,23.86,0,0,0-.37-3.92,2.5,2.5,0,0,1-.21-.89v-.37a1.55,1.55,0,0,1,1.18-.94c.51-.07.9.21,1.18.84a12.46,12.46,0,0,1,.37,2c.1.89.2,1.88.31,3s.2,2.22.29,3.35.19,2.18.31,3.14.25,1.75.39,2.38.3,1,.47,1a6.81,6.81,0,0,0,3.14-2.53,17.45,17.45,0,0,0,2-3.9,35.23,35.23,0,0,0,1.28-4.37c.33-1.48.67-2.8,1-3.95v-.1a1.53,1.53,0,0,1,1.39-.84c.54,0,.86.44,1,1.2s0,1.9,0,3.17-.08,2.65-.08,4.13,0,3,.11,4.53a27.19,27.19,0,0,0,.52,4.31,13.64,13.64,0,0,0,1.2,3.51,4.36,4.36,0,0,0,2.1,2.06,1.54,1.54,0,0,1,.44.82,1.38,1.38,0,0,1-.08.81,1,1,0,0,1-.55.52,1.21,1.21,0,0,1-.91,0A5.88,5.88,0,0,1,207,62.07a13.56,13.56,0,0,1-1.57-3.85,26.12,26.12,0,0,1-.71-4.71c-.1-1.67-.15-3.34-.15-5q-.84,2.15-1.86,4.21a16.42,16.42,0,0,1-2.2,3.45A5,5,0,0,1,198,57.88,2.84,2.84,0,0,1,195.31,57Z" transform="translate(-11.41 -6.56)"/><path d="M218.54,50.69c-.8,0-1.51,0-2.12-.08a5.61,5.61,0,0,1-1.91-.55,1.25,1.25,0,0,1-.76-.26,1.36,1.36,0,0,1-.47-.63,1.16,1.16,0,0,1,0-.78,1.42,1.42,0,0,1,.65-.74,3.14,3.14,0,0,1,1.13-.1,5.65,5.65,0,0,1,1.12.21l1.15.31a3.49,3.49,0,0,0,1.21.11,7.85,7.85,0,0,0,3.79-1.1c.65-.53.87-1,.68-1.54a2.61,2.61,0,0,0-1.52-1.31,6.34,6.34,0,0,0-2.82-.5,7.78,7.78,0,0,0-3.3.94,7.1,7.1,0,0,0-2.85,3,4.84,4.84,0,0,0-.73,3.35,4.21,4.21,0,0,0,1.44,2.41,7.33,7.33,0,0,0,2.85,1.41,13.22,13.22,0,0,0,3.56.45,11.62,11.62,0,0,0,3.5-.58A6.51,6.51,0,0,0,225.86,53a1.55,1.55,0,0,1,.92-.29,1,1,0,0,1,.7.32,1.26,1.26,0,0,1,.32.73,2,2,0,0,1-.16,1,8.27,8.27,0,0,1-3.24,2,14.56,14.56,0,0,1-4.19.81,17.39,17.39,0,0,1-4.37-.34,11.08,11.08,0,0,1-3.76-1.44,6.28,6.28,0,0,1-2.38-2.51,4.72,4.72,0,0,1-.26-3.5c.24-.91.44-1.62.6-2.15a5.14,5.14,0,0,1,.6-1.36,11.52,11.52,0,0,1,.89-1.2c.35-.42.84-1,1.46-1.67a7.39,7.39,0,0,1,4.16-2.54,7.67,7.67,0,0,1,4.14.34,7.75,7.75,0,0,1,3.16,2.2,4.44,4.44,0,0,1,1.23,3A3.59,3.59,0,0,1,224,49.2C223,50,221.12,50.51,218.54,50.69Z" transform="translate(-11.41 -6.56)"/><path d="M231.25,43.42c-.1-.25-.21-.54-.31-.87s-.2-.63-.29-.91a5.44,5.44,0,0,1-.18-.68q-.06-.27-.06-.21a1.46,1.46,0,0,1,.34-1,1.09,1.09,0,0,1,1.55-.13,1.45,1.45,0,0,1,.47.92,7.19,7.19,0,0,0,.23,1.7c.16.61.34,1.22.55,1.83l.63,1.83a12.07,12.07,0,0,1,.47,1.75,20.15,20.15,0,0,1,3.74-6,19.82,19.82,0,0,1,6-4.42,1.09,1.09,0,0,1,.87.05,1.46,1.46,0,0,1,.6.58,1.17,1.17,0,0,1,.13.81,1.37,1.37,0,0,1-.55.81,16.45,16.45,0,0,0-7.59,7,22.72,22.72,0,0,0-2.56,10.36V58a.51.51,0,0,1-.11.37,1.22,1.22,0,0,1-.73.73H234a.86.86,0,0,1-.41-.1h-.06s-.08,0-.15-.11l-.16-.16-.32-.62V56.39c0-1.67,0-3.31-.1-4.92a21.39,21.39,0,0,0-.73-4.71c-.18-.9-.3-1.57-.37-2A4.25,4.25,0,0,0,231.25,43.42Z" transform="translate(-11.41 -6.56)"/></svg>