<svg id="Layer_1" style="display: block;" data-name="Layer 1" xmlns="http://www.w3.org/2000/svg" viewBox="0 0 321.76 36.32"><defs><style>.cls-1{fill:none;stroke:#31009b;stroke-miterlimit:10;}</style></defs><path class="cls-1" d="M25.37,55.45V24.62h-10V20.8H39.69v3.82H29.63V55.45Z" transform="translate(-14.83 -20.3)"/><path class="cls-1" d="M41.26,55.45,55,20.8h4L72.66,55.45h-4.6l-3.85-10.1H49.7l-3.86,10.1Zm9.89-13.86H62.77L57,26.49Z" transform="translate(-14.83 -20.3)"/><path class="cls-1" d="M79.76,55.45V20.8H84V51.69H97.94v3.76Z" transform="translate(-14.83 -20.3)"/><path class="cls-1" d="M105.19,55.45V20.8h4.26V55.45Z" transform="translate(-14.83 -20.3)"/><path class="cls-1" d="M116.55,55.45,130.26,20.8h4l13.71,34.65h-4.6l-3.84-10.1H125l-3.87,10.1Zm9.89-13.86h11.61l-5.82-15.1Z" transform="translate(-14.83 -20.3)"/><path class="cls-1" d="M164.41,55.45V20.8h8.1q5,0,7.86,2.23a7.83,7.83,0,0,1,2.81,6.5q0,5.63-4.83,7.77a9.43,9.43,0,0,1,5.85,2.81A8.5,8.5,0,0,1,186.25,46a9.25,9.25,0,0,1-1.33,5.05,8.46,8.46,0,0,1-3.78,3.23,14,14,0,0,1-5.86,1.13Zm4.26-19.53h3a8.67,8.67,0,0,0,5.51-1.53A5.25,5.25,0,0,0,179.08,30a5.18,5.18,0,0,0-1.91-4.35,8.77,8.77,0,0,0-5.52-1.5h-3Zm0,16.12H174a9.21,9.21,0,0,0,5.82-1.58,5.46,5.46,0,0,0,2-4.55,5.62,5.62,0,0,0-2.05-4.63A9,9,0,0,0,174,39.63h-5.33Z" transform="translate(-14.83 -20.3)"/><path class="cls-1" d="M193.39,55.45V20.8h9.82a13.77,13.77,0,0,1,6,1.19,8.94,8.94,0,0,1,3.89,3.44,10,10,0,0,1,1.38,5.36,10.65,10.65,0,0,1-1.07,4.85,9.05,9.05,0,0,1-3.06,3.47,11.45,11.45,0,0,1-4.73,1.76l11.46,14.58h-5.42L200.9,41.31h-3.25V55.45Zm4.26-17.77h4.41a10.09,10.09,0,0,0,4.26-.82,6.28,6.28,0,0,0,2.75-2.34,6.57,6.57,0,0,0,1-3.62,6,6,0,0,0-2.11-4.9,8.94,8.94,0,0,0-5.87-1.76h-4.41Z" transform="translate(-14.83 -20.3)"/><path class="cls-1" d="M223.44,55.45V20.8h18v3.75H227.7V36.21h13.23V40H227.7V51.69h13.73v3.76Z" transform="translate(-14.83 -20.3)"/><path class="cls-1" d="M262.29,56.12q-6.14,0-9.24-3.28t-3.11-9.76V20.8h4.26V42c0,3.37.66,5.87,2,7.48s3.35,2.43,6.1,2.43,4.77-.81,6.1-2.43,2-4.11,2-7.48V20.8h4.29V43.08q0,6.48-3.11,9.76T262.29,56.12Z" transform="translate(-14.83 -20.3)"/><path class="cls-1" d="M284.86,55.45V20.8h18v3.75H289.12V36.21h13.23V40H289.12V51.69h13.74v3.76Z" transform="translate(-14.83 -20.3)"/><path class="cls-1" d="M311.89,55.45V20.8h9.83a13.75,13.75,0,0,1,6,1.19,9,9,0,0,1,3.9,3.44A10.1,10.1,0,0,1,333,30.79a10.65,10.65,0,0,1-1.07,4.85,9,9,0,0,1-3.06,3.47,11.45,11.45,0,0,1-4.73,1.76l11.46,14.58h-5.41L319.41,41.31h-3.26V55.45Zm4.26-17.77h4.41a10.09,10.09,0,0,0,4.26-.82,6.36,6.36,0,0,0,2.76-2.34,6.65,6.65,0,0,0,1-3.62,6,6,0,0,0-2.11-4.9,8.92,8.92,0,0,0-5.87-1.76h-4.41Z" transform="translate(-14.83 -20.3)"/></svg>