<svg id="Layer_1" data-name="Layer 1" xmlns="http://www.w3.org/2000/svg" viewBox="0 0 332.66 39.5"><defs><style>.cls-1{fill:#c490d1;}.cls-1,.cls-2,.cls-3,.cls-4{stroke:#4c2456;stroke-miterlimit:10;stroke-width:0.5px;}.cls-2{fill:#2f52e0;}.cls-3{fill:#64b6ac;}.cls-4{fill:#ffe156;}</style></defs><path class="cls-1" d="M39,27.34A50.73,50.73,0,0,0,25.5,28.42,89.62,89.62,0,0,0,12.72,32.3a2.33,2.33,0,0,1-2.48-.14,2,2,0,0,1-.85-1.49,4.26,4.26,0,0,1,1.7-2.11Q25,21.77,39,23.53a2,2,0,0,1,1.12,1,1.9,1.9,0,0,1,.31,1.33A3.41,3.41,0,0,1,40,27,1,1,0,0,1,39,27.34ZM29.31,51.07a1.92,1.92,0,0,1-.51,1.32,2.13,2.13,0,0,1-1.26.72c-.9.13-1.49,0-1.76-.48a3.45,3.45,0,0,1-.48-1.56c-.05-3.17-.1-6.34-.17-9.49s-.22-6.31-.44-9.48a3.36,3.36,0,0,0-.07-.65,1.89,1.89,0,0,1,0-.75,1.33,1.33,0,0,1,.31-.64,1.47,1.47,0,0,1,.78-.41,2.28,2.28,0,0,1,2.24.51,2.33,2.33,0,0,1,.68,1.53q.54,4.89.68,9.72T29.31,51.07Z" transform="translate(-9.14 -18.45)"/><path class="cls-2" d="M47.54,54.47a9.29,9.29,0,0,1-.89,2.07A2,2,0,0,1,45.5,57.6a1.86,1.86,0,0,1-2-.41A2.31,2.31,0,0,1,43,55.28a65.88,65.88,0,0,1,1.77-8.6c.81-3,1.77-6,2.85-9s2.28-5.94,3.57-8.77a84.83,84.83,0,0,1,4-7.72,1.35,1.35,0,0,1,.78-.65,1.3,1.3,0,0,1,.79,0,3.47,3.47,0,0,1,.81-.48,2.35,2.35,0,0,1,.95-.2,1.86,1.86,0,0,1,.45.06,1.32,1.32,0,0,1,.51.41,9.15,9.15,0,0,1,.64,1A19.32,19.32,0,0,1,61,23.19q.95,3.47,2.21,7.14c.84,2.45,1.71,4.89,2.62,7.34l.37-.1.38-.1a7.21,7.21,0,0,1,1.7.07,1.52,1.52,0,0,1,1.29,1,1.75,1.75,0,0,1-.14,1.77,5.67,5.67,0,0,1-2,1.49q.89,2.18,1.77,4.25c.59,1.39,1.2,2.73,1.83,4q.07.35.21,1.05a10,10,0,0,1,.17,1.43,5.17,5.17,0,0,1-.1,1.33,1.11,1.11,0,0,1-.55.81,1,1,0,0,1-1-.07,4.55,4.55,0,0,1-1-.71,6.35,6.35,0,0,1-.85-1,7,7,0,0,1-.58-.92c-.77-1.5-1.51-3-2.21-4.52s-1.37-3-2-4.59c-1.91.36-4,.68-6.23,1s-4.45.45-6.63.54q-.74,2.6-1.46,5.07C48.39,51.13,47.94,52.79,47.54,54.47Zm9.65-28.56a149.65,149.65,0,0,0-5.44,14,59.59,59.59,0,0,0,9.73-1.16A124.87,124.87,0,0,1,57.19,25.91Z" transform="translate(-9.14 -18.45)"/><path class="cls-3" d="M82.28,27.06c-.22,1.59-.43,3.35-.61,5.27s-.36,3.88-.54,5.85-.35,3.89-.51,5.75-.29,3.49-.38,4.89c1.54-.27,3.26-.58,5.14-1l5.74-1.12q2.92-.57,5.75-1c1.88-.29,3.59-.51,5.13-.65a1.11,1.11,0,0,1,.48.14.92.92,0,0,1,.54.88,2.14,2.14,0,0,1-.34,1.33,2.29,2.29,0,0,1-.81.68c-.32.16-.65.31-1,.44a2.9,2.9,0,0,0-.92.61c-1.4.37-2.94.75-4.62,1.16s-3.4.82-5.17,1.22l-5.3,1.23c-1.77.41-3.43.81-5,1.22a2.87,2.87,0,0,1-3.19-.75c-.73-.86-1-2.26-.89-4.21.23-3.67.5-7.36.82-11.05s.7-7.38,1.16-11A3.48,3.48,0,0,1,78.58,25a2.55,2.55,0,0,1,1.6-.88c1-.14,1.66.13,1.87.78A6,6,0,0,1,82.28,27.06Z" transform="translate(-9.14 -18.45)"/><path class="cls-4" d="M113.43,48.62a3.83,3.83,0,0,1,.06.78,2.65,2.65,0,0,1-.2,1,2.69,2.69,0,0,1-.58.89,1.42,1.42,0,0,1-1,.37,8.19,8.19,0,0,1-2.52-2.52c-.36-1.36-.69-2.92-1-4.69s-.54-3.61-.72-5.54-.3-3.89-.37-5.88-.08-3.92,0-5.78a9.36,9.36,0,0,1,.11-1.23,7,7,0,0,1,.37-1.46,4.6,4.6,0,0,1,.68-1.22,1.4,1.4,0,0,1,1.16-.51,1.91,1.91,0,0,1,1.42.54,2.41,2.41,0,0,1,.55,1.77c0,1.81,0,3.75,0,5.81s.19,4.14.38,6.23.42,4.11.71,6.08S113.06,47,113.43,48.62Z" transform="translate(-9.14 -18.45)"/><path class="cls-3" d="M122.88,54.47a8.85,8.85,0,0,1-.89,2.07,2,2,0,0,1-1.15,1.06,1.85,1.85,0,0,1-2-.41,2.28,2.28,0,0,1-.55-1.91,65.88,65.88,0,0,1,1.77-8.6c.82-3,1.77-6,2.86-9s2.27-5.94,3.57-8.77a82.4,82.4,0,0,1,4-7.72,1.34,1.34,0,0,1,.79-.65,1.28,1.28,0,0,1,.78,0,3.69,3.69,0,0,1,.81-.48,2.36,2.36,0,0,1,1-.2,1.85,1.85,0,0,1,.44.06,1.19,1.19,0,0,1,.51.41,9.15,9.15,0,0,1,.64,1,19.32,19.32,0,0,1,.92,1.87c.64,2.31,1.37,4.69,2.21,7.14s1.71,4.89,2.62,7.34l.37-.1a3.61,3.61,0,0,0,.38-.1,7.19,7.19,0,0,1,1.7.07,1.52,1.52,0,0,1,1.29,1,1.73,1.73,0,0,1-.14,1.77,5.67,5.67,0,0,1-2,1.49q.88,2.18,1.77,4.25c.59,1.39,1.2,2.73,1.84,4,0,.23.11.58.2,1.05a10,10,0,0,1,.17,1.43,5.17,5.17,0,0,1-.1,1.33,1.09,1.09,0,0,1-.55.81,1,1,0,0,1-1-.07,4.55,4.55,0,0,1-1-.71,6.35,6.35,0,0,1-.85-1,7,7,0,0,1-.58-.92c-.77-1.5-1.5-3-2.21-4.52s-1.37-3-2-4.59q-2.86.54-6.22,1t-6.63.54l-1.47,5.07C123.73,51.13,123.29,52.79,122.88,54.47Zm9.65-28.56a149.65,149.65,0,0,0-5.44,14,59.59,59.59,0,0,0,9.73-1.16A127.33,127.33,0,0,1,132.53,25.91Z" transform="translate(-9.14 -18.45)"/><path class="cls-4" d="M177.68,55.08a4.13,4.13,0,0,1-1.39-1,3.28,3.28,0,0,1-.85-1.29c-.23-.91-.47-2-.75-3.33s-.54-2.72-.81-4.22-.54-3-.78-4.59l-.72-4.49Q172,34,171.84,32.3c-.14-1.13-.23-2-.27-2.72s.24-1.13.74-1.22a2.26,2.26,0,0,1,2.52,1.29q.34,1.22.75,2.79c.27,1,.54,2.17.81,3.4a11.88,11.88,0,0,0,2.93-1.57,10.31,10.31,0,0,0,2.14-2.07,7.59,7.59,0,0,0,1.22-2.31,4.39,4.39,0,0,0,.11-2.35,2.85,2.85,0,0,0-1.91-1.9,9.59,9.59,0,0,0-3.54-.62,11.47,11.47,0,0,0-4.86,1,18.93,18.93,0,0,0-3.91,2.41,2,2,0,0,1-1.8.38,1.76,1.76,0,0,1-1.32-1.26,3.57,3.57,0,0,1,.34-1.63,4.78,4.78,0,0,1,.88-1.23,11.53,11.53,0,0,1,5-3.06,20.93,20.93,0,0,1,6.08-.88,15.33,15.33,0,0,1,5,.82,8.91,8.91,0,0,1,4.12,2.92,5.86,5.86,0,0,1,.85,2.86,8.57,8.57,0,0,1-.45,2.92A11.58,11.58,0,0,1,186,33a17.09,17.09,0,0,1-1.74,2.24,10.86,10.86,0,0,1,3.47.31,8.63,8.63,0,0,1,3.16,1.5,8,8,0,0,1,2.28,2.75,8.72,8.72,0,0,1,.88,4.08,10.44,10.44,0,0,1-1.18,5,12.21,12.21,0,0,1-3.13,3.81,14.86,14.86,0,0,1-4.42,2.45,15.22,15.22,0,0,1-5.14.88,2.44,2.44,0,0,1-1.83-.68A1,1,0,0,1,177.68,55.08Zm-.27-14.28c.37,1.77.71,3.6,1,5.51s.66,3.81,1,5.71h.28a11.55,11.55,0,0,0,3.29-.54,12.72,12.72,0,0,0,3.37-1.6A9.35,9.35,0,0,0,189,47.29a5.63,5.63,0,0,0,.95-3.43,4,4,0,0,0-1.56-2.58,6.7,6.7,0,0,0-3-1.16,14.19,14.19,0,0,0-3.81,0A39.26,39.26,0,0,0,177.41,40.8Z" transform="translate(-9.14 -18.45)"/><path class="cls-1" d="M203.18,53.31c-.13-1.67-.23-3.58-.3-5.71s-.1-4.32-.1-6.56,0-4.46,0-6.63.08-4.15.17-5.92a1.17,1.17,0,0,1,.65-1,1.72,1.72,0,0,1,1.05-.31,2.12,2.12,0,0,1,1.67.85,4.91,4.91,0,0,1,.57,2c0,1.45-.08,2.9-.1,4.35s0,2.9,0,4.35A10.94,10.94,0,0,0,212,36.45a9.8,9.8,0,0,0,3-3.88,8.92,8.92,0,0,0,.51-2,9.23,9.23,0,0,0,0-2.35,6.87,6.87,0,0,0-.64-2.24,3.91,3.91,0,0,0-1.53-1.67,7,7,0,0,0-3.27-.95,11.06,11.06,0,0,0-3.63.51,14.08,14.08,0,0,0-3.68,1.8,19.61,19.61,0,0,0-3.36,2.93,2.44,2.44,0,0,1-.28,1.8,2.62,2.62,0,0,1-1.35,1.12c-.37.09-.8-.1-1.3-.58a2,2,0,0,1-.74-1.46,7.54,7.54,0,0,1,1.52-4.72,13.22,13.22,0,0,1,3.85-3.37,18.79,18.79,0,0,1,5-2,20,20,0,0,1,4.9-.68,8.22,8.22,0,0,1,5.57,1.94,9.66,9.66,0,0,1,3.06,4.86,12.09,12.09,0,0,1-.71,9.18,18.66,18.66,0,0,1-7,7.07c2.36,1.45,4.57,2.84,6.63,4.15s4.14,2.74,6.22,4.28a8.16,8.16,0,0,1,.92,1.19,2.53,2.53,0,0,1-.17,2.35,1.59,1.59,0,0,1-1.4,1.05,2.77,2.77,0,0,1-1.93-.57c-1-.82-2.12-1.67-3.37-2.55s-2.55-1.77-3.91-2.66-2.72-1.74-4.08-2.58-2.65-1.62-3.88-2.35c.05,1.82.08,3.62.11,5.41s.08,3.55.17,5.27a1.51,1.51,0,0,1-.55,1.33,2.32,2.32,0,0,1-1.36.37,1.28,1.28,0,0,1-.75-.44,5.83,5.83,0,0,1-.64-.89,6.07,6.07,0,0,1-.51-1A2.27,2.27,0,0,1,203.18,53.31Z" transform="translate(-9.14 -18.45)"/><path class="cls-2" d="M248.74,37.54q.27.68-.54,1.32a5.1,5.1,0,0,1-2.58.85l-6.26.85-6.53.92q-.14,3.47,0,6.94a29,29,0,0,0,3.78-.31c1.47-.2,3-.46,4.52-.78s3-.65,4.45-1l3.64-.85a11,11,0,0,1,1.56-.3,5.15,5.15,0,0,1,1.47,0,1.74,1.74,0,0,1,1.05.51,1.55,1.55,0,0,1,.41,1.15c0,.14-.16.34-.48.61a7.84,7.84,0,0,1-1.19.85,14.21,14.21,0,0,1-1.49.82,13.68,13.68,0,0,1-1.4.58q-4.22,1.36-8.29,2.34a36.76,36.76,0,0,1-8,1.06,4.21,4.21,0,0,1-3.4-1.19,5.41,5.41,0,0,1-1.22-3.64q-.14-3.33,0-6.73a2.1,2.1,0,0,1-1.16-1.91,2,2,0,0,1,1.22-1.76c.09-1.32.16-2.64.21-4s.11-2.66.2-4a2.34,2.34,0,0,1-1.32-.75,1.92,1.92,0,0,1-.58-1.36,2.35,2.35,0,0,1,.27-1.12,1.76,1.76,0,0,1,1-.78c.82-.18,1.81-.39,3-.61s2.39-.43,3.64-.62,2.45-.34,3.61-.47,2.14-.23,3-.27a7.11,7.11,0,0,1,2.76.27,6,6,0,0,1,2.48,1.56,1.21,1.21,0,0,1-.38,1.43,3.49,3.49,0,0,1-1.66.61c-.68.09-1.5.2-2.45.31l-3,.37c-1,.14-2,.26-3.06.38s-2,.23-2.89.37a1.25,1.25,0,0,0,0,.31,1.69,1.69,0,0,1,0,.3c-.09,1.18-.16,2.36-.2,3.54s-.09,2.36-.14,3.53c1.9-.31,3.85-.6,5.85-.85s3.58-.41,4.76-.51a6.63,6.63,0,0,1,2.79.34A6.16,6.16,0,0,1,248.74,37.54Z" transform="translate(-9.14 -18.45)"/><path class="cls-1" d="M279.89,28.9c.18.82.36,1.78.54,2.89a34.1,34.1,0,0,1,.38,3.47c.06,1.2.07,2.44,0,3.7a24.23,24.23,0,0,1-.41,3.68,9.48,9.48,0,0,1-1.63,3.74,14.91,14.91,0,0,1-3,3.06A15.62,15.62,0,0,1,272,51.65a20.93,20.93,0,0,1-4.14,1.22,13.7,13.7,0,0,1-4.08.14,9.42,9.42,0,0,1-3.57-1.13,8.38,8.38,0,0,1-2.86-2.65,6.35,6.35,0,0,1-.95-4c.09-1.54.22-3,.41-4.25a34.35,34.35,0,0,1,.71-3.71q.43-1.75,1-3.57c.36-1.2.74-2.45,1.15-3.77a1.5,1.5,0,0,1,1.23-1,2.73,2.73,0,0,1,.81,0,1.22,1.22,0,0,1,.58.24,3,3,0,0,1,.71.64,4,4,0,0,1,.58,1,1.75,1.75,0,0,1,0,1.22c-.41,1.45-.82,2.92-1.23,4.42s-.76,2.92-1.05,4.28a24.66,24.66,0,0,0-.55,3.64,5.34,5.34,0,0,0,.31,2.48,3.94,3.94,0,0,0,2.41,1.67,8.11,8.11,0,0,0,3.23.1,14.44,14.44,0,0,0,3.3-.92,16.48,16.48,0,0,0,2.76-1.39,7.47,7.47,0,0,0,2.68-3.06,12.17,12.17,0,0,0,1.06-4,24,24,0,0,0,0-4.56c-.16-1.58-.37-3.15-.64-4.69a3.67,3.67,0,0,1,.06-1.56,2.27,2.27,0,0,1,1.09-1.5,1.38,1.38,0,0,1,1.74.14A3.77,3.77,0,0,1,279.89,28.9Z" transform="translate(-9.14 -18.45)"/><path class="cls-3" d="M306.07,37.54c.18.45,0,.89-.55,1.32a5.06,5.06,0,0,1-2.58.85l-6.26.85-6.52.92q-.15,3.47,0,6.94a28.87,28.87,0,0,0,3.77-.31c1.47-.2,3-.46,4.52-.78s3-.65,4.46-1l3.63-.85a10.91,10.91,0,0,1,1.57-.3,5.09,5.09,0,0,1,1.46,0,1.74,1.74,0,0,1,1.05.51,1.51,1.51,0,0,1,.41,1.15c0,.14-.16.34-.47.61a9,9,0,0,1-1.19.85,15.46,15.46,0,0,1-1.5.82,13.6,13.6,0,0,1-1.39.58c-2.82.91-5.58,1.69-8.3,2.34a36.68,36.68,0,0,1-8,1.06,4.22,4.22,0,0,1-3.4-1.19,5.41,5.41,0,0,1-1.22-3.64q-.14-3.33,0-6.73a2.12,2.12,0,0,1-1.16-1.91,2,2,0,0,1,1.23-1.76c.09-1.32.16-2.64.2-4s.11-2.66.21-4a2.36,2.36,0,0,1-1.33-.75,1.92,1.92,0,0,1-.58-1.36,2.35,2.35,0,0,1,.27-1.12,1.76,1.76,0,0,1,1-.78c.82-.18,1.82-.39,3-.61s2.39-.43,3.63-.62,2.45-.34,3.61-.47,2.14-.23,3-.27a7,7,0,0,1,2.75.27,6,6,0,0,1,2.48,1.56,1.2,1.2,0,0,1-.37,1.43,3.53,3.53,0,0,1-1.67.61c-.68.09-1.49.2-2.45.31l-2.95.37c-1,.14-2,.26-3.06.38s-2,.23-2.89.37a1.89,1.89,0,0,0,0,.31,1.69,1.69,0,0,1,0,.3c-.09,1.18-.16,2.36-.2,3.54s-.09,2.36-.14,3.53c1.91-.31,3.86-.6,5.85-.85s3.58-.41,4.76-.51a6.63,6.63,0,0,1,2.79.34A6.2,6.2,0,0,1,306.07,37.54Z" transform="translate(-9.14 -18.45)"/><path class="cls-2" d="M318.85,53.31c-.13-1.67-.24-3.58-.3-5.71s-.11-4.32-.11-6.56,0-4.46,0-6.63.08-4.15.17-5.92a1.16,1.16,0,0,1,.64-1,1.74,1.74,0,0,1,1.06-.31A2.1,2.1,0,0,1,322,28a4.75,4.75,0,0,1,.58,2c0,1.45-.08,2.9-.1,4.35s0,2.9,0,4.35a11,11,0,0,0,5.14-2.24,9.8,9.8,0,0,0,3-3.88,8.92,8.92,0,0,0,.51-2,9.23,9.23,0,0,0,0-2.35,6.89,6.89,0,0,0-.65-2.24A3.91,3.91,0,0,0,329,24.34a6.94,6.94,0,0,0-3.26-.95,11.15,11.15,0,0,0-3.64.51,14,14,0,0,0-3.67,1.8A20.06,20.06,0,0,0,315,28.63a2.39,2.39,0,0,1-.27,1.8,2.64,2.64,0,0,1-1.36,1.12c-.36.09-.79-.1-1.29-.58a2,2,0,0,1-.75-1.46,7.54,7.54,0,0,1,1.53-4.72,13.18,13.18,0,0,1,3.84-3.37,18.85,18.85,0,0,1,5-2,20,20,0,0,1,4.89-.68,8.26,8.26,0,0,1,5.58,1.94,9.66,9.66,0,0,1,3.06,4.86,12.13,12.13,0,0,1-.71,9.18,18.74,18.74,0,0,1-7,7.07c2.35,1.45,4.56,2.84,6.63,4.15s4.13,2.74,6.22,4.28a8.16,8.16,0,0,1,.92,1.19,2.53,2.53,0,0,1-.17,2.35,1.6,1.6,0,0,1-1.4,1.05,2.79,2.79,0,0,1-1.94-.57c-1-.82-2.12-1.67-3.36-2.55s-2.55-1.77-3.91-2.66-2.72-1.74-4.08-2.58-2.65-1.62-3.88-2.35c.05,1.82.08,3.62.1,5.41s.08,3.55.17,5.27a1.5,1.5,0,0,1-.54,1.33,2.34,2.34,0,0,1-1.36.37,1.28,1.28,0,0,1-.75-.44,5.22,5.22,0,0,1-.64-.89,6.07,6.07,0,0,1-.51-1A2.27,2.27,0,0,1,318.85,53.31Z" transform="translate(-9.14 -18.45)"/></svg>